<svg width="71" height="18" viewBox="0 0 71 18" fill="none" xmlns="http://www.w3.org/2000/svg">
<path d="M27.6821 4.77406C26.9612 4.03831 25.7925 4.03819 25.0717 4.77378C24.351 5.50938 24.3511 6.70213 25.072 7.43787L33.5952 16.1366C34.3162 16.8723 35.4849 16.8725 36.2056 16.1369C36.9264 15.4013 36.9263 14.2085 36.2054 13.4728L27.6821 4.77406Z" fill="#02AA69"/>
<path d="M25.2301 13.695C24.5398 14.46 24.5878 15.6513 25.3373 16.3557C26.0868 17.06 27.254 17.0108 27.9443 16.2457L36.1104 7.19502C36.8007 6.42993 36.7527 5.2387 36.0033 4.53431C35.2537 3.82994 34.0865 3.87916 33.3962 4.64428L25.2301 13.695Z" fill="#02AA69"/>
<path d="M6.0615 16.6422C5.24342 16.6499 4.4278 16.5501 3.63466 16.3455C2.93181 16.1666 2.27796 15.8272 1.72252 15.3527C1.18553 14.8891 0.764059 14.2538 0.458117 13.4467C0.152176 12.6395 -0.000529769 11.6366 1.3808e-06 10.4381C1.3808e-06 8.56629 0.451479 7.08992 1.35444 6.009C2.25739 4.92808 3.61182 4.3879 5.41775 4.38844C5.65567 4.38844 5.96879 4.40742 6.35708 4.44536C6.76956 4.48993 7.17521 4.58578 7.56489 4.73077C7.99342 4.89245 8.37646 5.15912 8.68032 5.50731L8.00948 6.55703V0H11.3199V13.2857C11.3304 13.8127 11.1733 14.3291 10.8721 14.7574C10.5563 15.192 10.1475 15.5473 9.67703 15.7966C9.14471 16.0828 8.57675 16.294 7.98877 16.4244C7.35628 16.5698 6.70986 16.6429 6.0615 16.6422ZM6.19536 13.789C6.73234 13.789 7.16842 13.7169 7.50357 13.5727C7.83872 13.4285 8.00658 13.2117 8.00708 12.9222V7.60191C7.73534 7.44817 7.44605 7.32914 7.14586 7.2474C6.85788 7.16668 6.56085 7.12458 6.26225 7.12218C5.63604 7.12218 5.10675 7.22871 4.67438 7.44175C4.24203 7.65475 3.91777 8.0112 3.70159 8.511C3.48488 9.01352 3.37679 9.69111 3.37732 10.5438C3.37732 11.2138 3.46682 11.7882 3.64582 12.2668C3.80998 12.7309 4.12085 13.126 4.52939 13.3897C4.93889 13.6554 5.49422 13.7879 6.19536 13.7874V13.789Z" fill="#02AA69"/>
<path d="M18.223 16.6425C17.0901 16.6425 16.0872 16.4029 15.2146 15.9237C14.3545 15.4563 13.6472 14.7423 13.1797 13.8697C12.6948 12.9791 12.4526 11.9174 12.4531 10.6847C12.4531 8.67625 12.9413 7.12022 13.9175 6.01654C14.8938 4.91287 16.2917 4.36209 18.1115 4.36426C19.3639 4.36426 20.3731 4.6383 21.139 5.18633C21.9049 5.73436 22.4677 6.53314 22.8273 7.58264C23.1848 8.63319 23.3563 9.9117 23.342 11.4181H14.7342L14.3764 9.24302H20.5909L20.0985 10.3155C20.0842 9.08282 19.9129 8.2155 19.5846 7.71353C19.2564 7.21156 18.7207 6.96247 17.9776 6.96625C17.579 6.9609 17.1872 7.07144 16.8478 7.28499C16.5127 7.49914 16.2516 7.8531 16.0647 8.34694C15.8777 8.84079 15.785 9.52059 15.7866 10.3863C15.7866 11.4824 16.044 12.3272 16.5586 12.9208C17.0733 13.5144 17.8966 13.8109 19.0285 13.8104C19.4465 13.8105 19.8631 13.7609 20.2698 13.6623C20.6606 13.569 21.0454 13.4509 21.4219 13.3087C21.7799 13.1709 22.0855 13.0493 22.3389 12.9435V15.8651C21.7567 16.1075 21.154 16.2948 20.5383 16.4246C19.776 16.5787 19.0001 16.6518 18.223 16.6425Z" fill="#02AA69"/>
<path d="M41.0051 16.2358L37.2031 4.68945H40.8035L43.3307 14.0257L42.2791 14.0713L44.6692 4.68945H47.1296L49.4784 13.7964H48.6545L51.0703 4.68945H54.6035L50.8464 16.2358H47.8264L45.5902 8.77135L46.1478 8.84044L44.0231 16.2399L41.0051 16.2358Z" fill="#02AA69"/>
<path d="M55.5078 3.1111V0.486328H58.952V3.1111H55.5078ZM55.5747 16.2358V4.84632H58.9072L58.9298 16.2358H55.5747Z" fill="#02AA69"/>
<path d="M60.2734 5.66527C60.6334 5.48084 61.006 5.32452 61.3891 5.19773C61.8879 5.02779 62.3958 4.88689 62.9099 4.7757C63.4612 4.65372 64.017 4.5548 64.5769 4.47891C65.0924 4.40556 65.6129 4.36726 66.1334 4.36426C67.1482 4.36426 68.0129 4.49978 68.7279 4.77081C69.4424 5.04187 69.9909 5.47175 70.3722 6.06044C70.752 6.65675 70.942 7.4631 70.942 8.4795V16.2359H67.6099V9.1617C67.6127 8.89013 67.5706 8.61999 67.4865 8.36241C67.4105 8.11595 67.2762 7.89238 67.0953 7.71132C66.9149 7.53025 66.6933 7.39724 66.4504 7.32404C66.1176 7.21738 65.7698 7.16707 65.4212 7.17524C65.0734 7.17524 64.727 7.21729 64.3887 7.30046C64.1192 7.35852 63.8569 7.44658 63.6064 7.56312V16.2359H60.2734V5.66527Z" fill="#02AA69"/>
</svg>
