<svg width="14" height="14" viewBox="0 0 14 14" fill="none" xmlns="http://www.w3.org/2000/svg">
<path d="M11.9561 5.875C12.3703 5.875 12.7061 6.21079 12.7061 6.625C12.706 9.9846 9.98261 12.7078 6.62305 12.708C3.26348 12.7078 0.539094 9.9846 0.539064 6.625C0.539064 6.211 0.875149 5.87535 1.28906 5.875C1.70328 5.875 2.03906 6.21079 2.03906 6.625C2.03909 9.15617 4.09191 11.2078 6.62305 11.208C9.15418 11.2078 11.206 9.15617 11.2061 6.625C11.2061 6.2109 11.542 5.87518 11.9561 5.875ZM6.09278 0.76172C6.38567 0.468827 6.86043 0.468827 7.15332 0.76172L9.15332 2.76172C9.44602 3.05463 9.44615 3.52944 9.15332 3.82227C8.86048 4.11491 8.38562 4.11491 8.09278 3.82227L7.37305 3.10254L7.37305 7.95899C7.37267 8.37287 7.03703 8.70899 6.62305 8.70899C6.20907 8.70899 5.87343 8.37287 5.87305 7.95899L5.87305 3.10254L5.15332 3.82227C4.86048 4.1149 4.38562 4.1149 4.09278 3.82227C3.79995 3.52944 3.80007 3.05463 4.09278 2.76172L6.09278 0.76172Z" fill="black"/>
</svg>
