<svg width="36" height="36" viewBox="0 0 36 36" fill="none" xmlns="http://www.w3.org/2000/svg">
<path d="M0 4C0 1.79086 1.79086 0 4 0H32C34.2091 0 36 1.79086 36 4V32C36 34.2091 34.2091 36 32 36H4C1.79086 36 0 34.2091 0 32V4Z" fill="#02AA69" fill-opacity="0.1"/>
<path d="M14.6611 10.832C14.8952 10.832 15.046 10.8319 15.1934 10.8457C15.8275 10.905 16.4286 11.1551 16.9189 11.5615C17.0329 11.656 17.14 11.7621 17.3057 11.9277L17.6895 12.3125C18.2532 12.8762 18.4704 13.0863 18.7207 13.2256C18.866 13.3064 19.0207 13.3704 19.1807 13.416C19.4561 13.4944 19.7587 13.499 20.5557 13.499H20.8379C21.6864 13.499 22.3709 13.4993 22.9121 13.5674C23.4731 13.6379 23.9502 13.7884 24.3418 14.1406C24.4072 14.1995 24.4695 14.2617 24.5283 14.3271C24.8805 14.7187 25.031 15.1959 25.1016 15.7568C25.1695 16.298 25.1699 16.9818 25.1699 17.8301V19.3701C25.1699 20.5952 25.1695 21.5658 25.0674 22.3252C24.9623 23.1067 24.7411 23.7394 24.2422 24.2383C23.7433 24.7372 23.1106 24.9584 22.3291 25.0635C21.5697 25.1656 20.5991 25.166 19.374 25.166H16.6318C15.4067 25.166 14.4362 25.1656 13.6768 25.0635C12.8952 24.9584 12.2625 24.7372 11.7637 24.2383C11.2648 23.7394 11.0436 23.1067 10.9385 22.3252C10.8364 21.5657 10.8359 20.5952 10.8359 19.3701V14.5723C10.8359 14.0417 10.8366 13.7038 10.8916 13.4121C11.1333 12.1311 12.135 11.1294 13.416 10.8877C13.7077 10.8327 14.0456 10.832 14.5762 10.832H14.6611ZM14.6357 11.832C14.0252 11.832 13.789 11.8348 13.6016 11.8701C12.7251 12.0355 12.0394 12.7212 11.874 13.5977C11.8387 13.7851 11.8359 14.0213 11.8359 14.6318V19.332C11.8359 20.603 11.8376 21.5063 11.9297 22.1914C12.0199 22.8621 12.1886 23.2491 12.4707 23.5312C12.7528 23.8134 13.1398 23.9821 13.8105 24.0723C14.4956 24.1643 15.3989 24.166 16.6699 24.166H19.3359C20.6069 24.166 21.5102 24.1643 22.1953 24.0723C22.866 23.9821 23.253 23.8134 23.5352 23.5312C23.8173 23.2491 23.986 22.8621 24.0762 22.1914C24.1682 21.5063 24.1699 20.603 24.1699 19.332V17.8643C24.1699 16.9737 24.1687 16.3524 24.1094 15.8809C24.0517 15.4221 23.9458 15.1748 23.7852 14.9961C23.7498 14.9568 23.7122 14.9192 23.6729 14.8838C23.4941 14.723 23.2462 14.6173 22.7871 14.5596C22.3156 14.5003 21.6948 14.499 20.8047 14.499H20.4814C19.7831 14.4992 19.3326 14.4994 18.9062 14.3779C18.6725 14.3113 18.4468 14.2178 18.2344 14.0996C17.847 13.8841 17.5289 13.5652 17.0352 13.0713C17.018 13.0542 17 13.0371 16.9824 13.0195L16.6162 12.6523C16.4275 12.4636 16.3549 12.3921 16.2812 12.3311C15.9459 12.053 15.5343 11.8825 15.1006 11.8418C15.0053 11.8329 14.9028 11.832 14.6357 11.832ZM18.6494 17.6455C18.8447 17.4502 19.1612 17.4502 19.3564 17.6455C19.5517 17.8408 19.5517 18.1573 19.3564 18.3525L18.71 18.999L19.3564 19.6455C19.5517 19.8408 19.5517 20.1573 19.3564 20.3525C19.1612 20.5478 18.8447 20.5478 18.6494 20.3525L18.0029 19.7061L17.3564 20.3525C17.1612 20.5478 16.8447 20.5478 16.6494 20.3525C16.4542 20.1573 16.4542 19.8408 16.6494 19.6455L17.2959 18.999L16.6494 18.3525C16.4542 18.1573 16.4542 17.8408 16.6494 17.6455C16.8447 17.4502 17.1612 17.4502 17.3564 17.6455L18.0029 18.292L18.6494 17.6455Z" fill="#0A0A0A"/>
</svg>
